<svg width="367" height="363" viewBox="0 0 367 363" fill="none" xmlns="http://www.w3.org/2000/svg">
<path d="M4.675 183.538L4.675 179.679C4.675 178.013 4.94133 176.744 5.474 175.871C6.00666 174.998 6.98133 174.562 8.398 174.562C9.146 174.562 9.76933 174.687 10.268 174.936C10.7667 175.174 11.152 175.531 11.424 176.007C11.6847 176.483 11.866 177.016 11.968 177.605C12.07 178.183 12.121 178.874 12.121 179.679L12.121 181.804L17 181.804L17 183.538L4.675 183.538ZM6.137 179.543L6.137 181.804L10.608 181.804L10.608 179.543C10.608 179.01 10.5853 178.58 10.54 178.251C10.4947 177.922 10.404 177.599 10.268 177.282C10.1207 176.953 9.894 176.715 9.588 176.568C9.282 176.409 8.88533 176.33 8.398 176.33C7.91066 176.33 7.514 176.409 7.208 176.568C6.89066 176.715 6.65833 176.948 6.511 177.265C6.36366 177.582 6.26733 177.917 6.222 178.268C6.16533 178.608 6.137 179.033 6.137 179.543ZM7.82 168.578L9.469 168.578C9.42366 168.862 9.401 169.151 9.401 169.445C9.401 170.182 9.622 170.726 10.064 171.077C10.4947 171.417 11.2087 171.587 12.206 171.587L17 171.587L17 173.134L7.854 173.134L7.854 171.621L9.452 171.621C8.40933 171.157 7.85966 170.295 7.803 169.037C7.803 168.856 7.80866 168.703 7.82 168.578ZM12.461 166.203C13.6057 166.203 14.4613 165.943 15.028 165.421C15.5833 164.9 15.861 164.248 15.861 163.466C15.861 162.696 15.572 162.05 14.994 161.528C14.416 160.996 13.5717 160.729 12.461 160.729C11.3163 160.729 10.4663 160.99 9.911 161.511C9.34433 162.033 9.061 162.684 9.061 163.466C9.061 164.248 9.33866 164.9 9.894 165.421C10.438 165.943 11.2937 166.203 12.461 166.203ZM8.925 166.543C8.109 165.671 7.701 164.645 7.701 163.466C7.701 162.288 8.109 161.262 8.925 160.389C9.741 159.517 10.9197 159.08 12.461 159.08C14.0023 159.08 15.181 159.517 15.997 160.389C16.813 161.262 17.221 162.288 17.221 163.466C17.221 164.645 16.813 165.671 15.997 166.543C15.181 167.416 14.0023 167.852 12.461 167.852C10.9197 167.852 9.741 167.416 8.925 166.543ZM7.85399 156.756L7.191 156.756C6.20499 156.756 5.54199 156.603 5.20199 156.297C4.85066 155.98 4.67499 155.311 4.67499 154.291L4.67499 153.492L5.96699 153.492L5.96699 154.257C5.96699 154.665 6.04066 154.926 6.18799 155.039C6.32399 155.152 6.62999 155.209 7.106 155.209L7.85399 155.209L7.85399 153.492L9.095 153.492L9.095 155.209L17 155.209L17 156.756L9.095 156.756L9.095 158.031L7.85399 158.031L7.85399 156.756ZM7.85399 151.818L7.85399 150.271L17 150.271L17 151.818L7.85399 151.818ZM4.67499 151.818L4.67499 150.271L6.54499 150.271L6.54499 151.818L4.67499 151.818ZM7.85399 147.375L5.55899 147.375L5.55899 145.828L7.85399 145.828L7.85399 144.094L9.09499 144.094L9.095 145.828L14.518 145.828C15.0167 145.828 15.3397 145.777 15.487 145.675C15.6343 145.562 15.708 145.295 15.708 144.876L15.708 144.094L17 144.094L17 145.216C17 146.1 16.8527 146.684 16.558 146.967C16.2633 147.239 15.6457 147.375 14.705 147.375L9.095 147.375L9.095 148.82L7.85399 148.82L7.85399 147.375Z" fill="white"/>
<path d="M187.012 358L187.012 347.171H183L183 345.675H192.758L192.758 347.171H188.746L188.746 358H187.012ZM193.654 348.854H195.201L195.201 358H193.654L193.654 348.854ZM193.654 345.675H195.201L195.201 347.545H193.654L193.654 345.675ZM199.202 353.036L199.202 358H197.655L197.655 348.854H199.202L199.202 350.231C199.825 349.211 200.743 348.701 201.956 348.701C203.282 348.701 204.16 349.239 204.591 350.316C205.282 349.239 206.308 348.701 207.668 348.701C209.64 348.701 210.626 349.874 210.626 352.22L210.626 358H209.079L209.079 352.679C209.079 351.852 208.943 351.206 208.671 350.741C208.41 350.276 207.894 350.044 207.124 350.044C206.432 350.044 205.888 350.299 205.492 350.809C205.106 351.319 204.914 352.061 204.914 353.036L204.914 358H203.367L203.367 352.679C203.367 351.852 203.231 351.206 202.959 350.741C202.698 350.276 202.182 350.044 201.412 350.044C200.72 350.044 200.176 350.299 199.78 350.809C199.394 351.319 199.202 352.061 199.202 353.036ZM221.02 353.937H213.982C214.004 354.866 214.293 355.586 214.849 356.096C215.415 356.606 216.067 356.861 216.804 356.861C218.028 356.861 218.861 356.357 219.303 355.348H220.901C220.685 356.175 220.215 356.861 219.49 357.405C218.764 357.949 217.869 358.221 216.804 358.221C215.398 358.221 214.299 357.773 213.506 356.878C212.712 355.983 212.316 354.838 212.316 353.444C212.316 352.016 212.735 350.871 213.574 350.01C214.412 349.137 215.472 348.701 216.753 348.701C218.124 348.701 219.201 349.205 219.983 350.214C220.765 351.211 221.11 352.452 221.02 353.937ZM216.753 350.027C216.016 350.027 215.387 350.242 214.866 350.673C214.356 351.104 214.067 351.75 213.999 352.611H219.388C219.365 351.92 219.116 351.319 218.64 350.809C218.164 350.288 217.535 350.027 216.753 350.027Z" fill="white"/>
<g opacity="0.3">
<path d="M79.5732 9.36523C79.5732 258.672 79.5732 320.999 79.5732 320.999" stroke="url(#paint0_linear_3_1179)" stroke-width="0.85"/>
<path d="M146.72 9.36523C146.72 258.672 146.72 320.999 146.72 320.999" stroke="url(#paint1_linear_3_1179)" stroke-width="0.85"/>
<path d="M213.868 9.36523C213.868 258.672 213.868 320.999 213.868 320.999" stroke="url(#paint2_linear_3_1179)" stroke-width="0.85"/>
<path d="M281.016 9.36523C281.016 258.672 281.016 320.999 281.016 320.999" stroke="url(#paint3_linear_3_1179)" stroke-width="0.85"/>
<path d="M113.147 9.36523C113.147 258.672 113.147 320.999 113.147 320.999" stroke="url(#paint4_linear_3_1179)" stroke-width="0.85"/>
<path d="M180.294 9.36523C180.294 258.672 180.294 320.999 180.294 320.999" stroke="url(#paint5_linear_3_1179)" stroke-width="0.85"/>
<path d="M247.442 9.36523C247.442 258.672 247.442 320.999 247.442 320.999" stroke="url(#paint6_linear_3_1179)" stroke-width="0.85"/>
<path d="M314.589 9.36523C314.589 258.672 314.589 320.999 314.589 320.999" stroke="url(#paint7_linear_3_1179)" stroke-width="0.85"/>
<path d="M359.703 52.2422C109.578 52.2422 47.0469 52.2422 47.0469 52.2422" stroke="url(#paint8_linear_3_1179)" stroke-width="0.85"/>
<path d="M359.703 119.171C109.578 119.171 47.0469 119.171 47.0469 119.171" stroke="url(#paint9_linear_3_1179)" stroke-width="0.85"/>
<path d="M359.703 186.098C109.578 186.098 47.0469 186.098 47.0469 186.098" stroke="url(#paint10_linear_3_1179)" stroke-width="0.85"/>
<path d="M359.703 253.026C109.578 253.026 47.0469 253.026 47.0469 253.026" stroke="url(#paint11_linear_3_1179)" stroke-width="0.85"/>
<path d="M359.703 85.7059C109.578 85.7059 47.0469 85.7059 47.0469 85.7059" stroke="url(#paint12_linear_3_1179)" stroke-width="0.85"/>
<path d="M359.703 152.634C109.578 152.634 47.0469 152.634 47.0469 152.634" stroke="url(#paint13_linear_3_1179)" stroke-width="0.85"/>
<path d="M359.703 219.562C109.578 219.562 47.0469 219.562 47.0469 219.562" stroke="url(#paint14_linear_3_1179)" stroke-width="0.85"/>
<path d="M359.703 286.49C109.578 286.49 47.0469 286.49 47.0469 286.49" stroke="url(#paint15_linear_3_1179)" stroke-width="0.85"/>
</g>
<path d="M46 0.999878V319.954H366" stroke="white" stroke-width="1.7" stroke-linecap="round"/>
<path d="M171.073 238.385L171.774 237.82L171.073 238.385ZM194.972 291.635L197.528 281.547L187.513 284.377L194.972 291.635ZM46 201.031C46.022 201.932 46.022 201.932 46.022 201.932C46.022 201.932 46.022 201.932 46.022 201.932C46.022 201.932 46.022 201.932 46.022 201.932C46.022 201.932 46.0221 201.932 46.0222 201.932C46.0224 201.932 46.0228 201.932 46.0233 201.932C46.0243 201.932 46.0258 201.932 46.028 201.932C46.0323 201.932 46.0389 201.932 46.0478 201.931C46.0656 201.931 46.0925 201.931 46.1284 201.93C46.2002 201.928 46.308 201.926 46.4505 201.924C46.7355 201.92 47.1593 201.915 47.7121 201.911L47.7016 200.109C47.1428 200.112 46.7132 200.117 46.4226 200.122C46.2774 200.124 46.1669 200.126 46.0923 200.128C46.0551 200.128 46.0268 200.129 46.0077 200.129C45.9981 200.129 45.9909 200.13 45.9859 200.13C45.9834 200.13 45.9815 200.13 45.9802 200.13C45.9796 200.13 45.979 200.13 45.9787 200.13C45.9785 200.13 45.9783 200.13 45.9782 200.13C45.9782 200.13 45.9781 200.13 45.9781 200.13C45.9781 200.13 45.978 200.13 45.978 200.13C45.978 200.13 45.978 200.13 46 201.031ZM51.2353 201.922C52.2859 201.933 53.48 201.952 54.8038 201.984L54.8467 200.182C53.5147 200.15 52.3127 200.131 51.2546 200.119L51.2353 201.922ZM58.2989 202.088C59.41 202.127 60.5837 202.174 61.8146 202.232L61.8984 200.431C60.6606 200.373 59.4802 200.326 58.3626 200.286L58.2989 202.088ZM65.3368 202.415C66.475 202.48 67.6515 202.553 68.8628 202.636L68.9853 200.837C67.7674 200.754 66.5845 200.681 65.44 200.615L65.3368 202.415ZM72.3768 202.894C73.5173 202.984 74.683 203.082 75.8716 203.189L76.033 201.394C74.8377 201.286 73.6654 201.188 72.5187 201.097L72.3768 202.894ZM79.3737 203.523C80.526 203.64 81.6963 203.764 82.8826 203.898L83.0841 202.106C81.8908 201.972 80.7137 201.847 79.5548 201.73L79.3737 203.523ZM86.3947 204.314C87.5415 204.456 88.7007 204.607 89.8708 204.767L90.1146 202.981C88.9372 202.82 87.7708 202.668 86.6171 202.525L86.3947 204.314ZM93.3558 205.264C94.5104 205.437 95.6736 205.618 96.8439 205.808L97.133 204.028C95.9548 203.837 94.7839 203.655 93.6218 203.481L93.3558 205.264ZM100.309 206.395C101.457 206.597 102.611 206.809 103.769 207.03L104.107 205.259C102.94 205.036 101.778 204.823 100.622 204.619L100.309 206.395ZM107.226 207.716C108.369 207.952 109.515 208.197 110.662 208.453L111.054 206.693C109.898 206.436 108.742 206.188 107.59 205.951L107.226 207.716ZM114.089 209.245C115.228 209.518 116.367 209.801 117.504 210.095L117.955 208.35C116.807 208.053 115.658 207.767 114.51 207.492L114.089 209.245ZM120.898 211.005C122.027 211.319 123.153 211.644 124.275 211.979L124.792 210.252C123.659 209.913 122.521 209.585 121.381 209.268L120.898 211.005ZM127.628 213.021C128.745 213.38 129.857 213.752 130.962 214.135L131.552 212.432C130.435 212.044 129.311 211.669 128.181 211.305L127.628 213.021ZM134.265 215.325C135.362 215.736 136.451 216.159 137.531 216.594L138.205 214.923C137.111 214.481 136.007 214.052 134.896 213.637L134.265 215.325ZM140.769 217.953C141.845 218.423 142.909 218.905 143.96 219.402L144.73 217.772C143.662 217.268 142.582 216.777 141.49 216.301L140.769 217.953ZM147.097 220.946C148.143 221.482 149.174 222.033 150.189 222.6L151.068 221.026C150.034 220.449 148.983 219.887 147.919 219.342L147.097 220.946ZM153.21 224.362C154.208 224.971 155.188 225.595 156.148 226.237L157.15 224.738C156.168 224.082 155.167 223.444 154.148 222.823L153.21 224.362ZM159.011 228.245C159.954 228.939 160.874 229.651 161.769 230.381L162.908 228.984C161.989 228.234 161.046 227.504 160.08 226.793L159.011 228.245ZM164.405 232.65C165.267 233.434 166.102 234.238 166.909 235.063L168.197 233.802C167.366 232.952 166.505 232.124 165.618 231.316L164.405 232.65ZM169.262 237.622C169.64 238.06 170.009 238.503 170.371 238.951L171.774 237.82C171.4 237.356 171.018 236.897 170.627 236.445L169.262 237.622ZM170.371 238.951C170.743 239.412 171.112 239.886 171.478 240.372L172.917 239.286C172.54 238.786 172.159 238.297 171.774 237.82L170.371 238.951ZM173.572 243.32C174.236 244.309 174.888 245.331 175.528 246.382L177.067 245.444C176.415 244.373 175.749 243.328 175.069 242.315L173.572 243.32ZM177.358 249.52C177.947 250.571 178.523 251.642 179.087 252.726L180.687 251.895C180.115 250.795 179.53 249.708 178.931 248.639L177.358 249.52ZM180.724 255.983C181.256 257.077 181.775 258.178 182.281 259.282L183.92 258.532C183.409 257.416 182.884 256.301 182.345 255.194L180.724 255.983ZM183.766 262.618C184.254 263.745 184.727 264.868 185.185 265.983L186.852 265.297C186.39 264.173 185.913 263.039 185.42 261.902L183.766 262.618ZM186.545 269.375C186.998 270.533 187.434 271.674 187.85 272.791L189.539 272.161C189.12 271.036 188.681 269.886 188.224 268.718L186.545 269.375ZM189.101 276.221C189.527 277.415 189.927 278.569 190.303 279.671L192.009 279.091C191.631 277.981 191.228 276.819 190.799 275.616L189.101 276.221ZM191.455 283.138C191.872 284.421 192.242 285.596 192.564 286.639L194.286 286.108C193.962 285.056 193.589 283.873 193.17 282.581L191.455 283.138Z" fill="#EB5757"/>
<path d="M241.177 216.277L240.907 217.137L241.177 216.277ZM343.944 264.1L338.602 255.168L333.537 264.261L343.944 264.1ZM46 201.134C46.0574 202.033 46.0577 202.033 46.0586 202.033C46.0595 202.033 46.0607 202.033 46.0625 202.033C46.0661 202.033 46.0716 202.032 46.0789 202.032C46.0934 202.031 46.1154 202.029 46.1446 202.028C46.2031 202.024 46.2908 202.019 46.407 202.012C46.6395 201.998 46.986 201.977 47.4414 201.952C48.3523 201.9 49.6987 201.828 51.4387 201.744C54.9187 201.576 59.9732 201.361 66.2671 201.175C78.8553 200.803 96.3988 200.546 116.218 201.005C155.882 201.923 204.569 205.708 240.907 217.137L241.448 215.418C204.854 203.908 155.952 200.121 116.26 199.202C96.4018 198.743 78.8257 199 66.2138 199.373C59.9076 199.559 54.8418 199.775 51.3517 199.943C49.6066 200.027 48.2554 200.1 47.3399 200.152C46.8822 200.178 46.5334 200.198 46.2988 200.212C46.1815 200.219 46.0927 200.225 46.0331 200.228C46.0033 200.23 45.9808 200.232 45.9657 200.233C45.9582 200.233 45.9525 200.233 45.9486 200.234C45.9467 200.234 45.9452 200.234 45.9442 200.234C45.9432 200.234 45.9426 200.234 46 201.134ZM240.907 217.137C274.29 227.637 319.214 251.492 336.422 260.942L337.289 259.362C320.096 249.92 275.025 225.979 241.448 215.418L240.907 217.137Z" fill="#EB5757"/>
<path d="M202.222 142.173L202.886 142.784L202.222 142.173ZM249.249 2.54199L243.138 10.9666L253.489 12.0466L249.249 2.54199ZM46 201.007C46.0893 201.904 46.0899 201.904 46.0909 201.904C46.0918 201.904 46.0933 201.903 46.0951 201.903C46.0987 201.903 46.1041 201.902 46.1111 201.902C46.1252 201.9 46.1461 201.898 46.1736 201.895C46.2287 201.89 46.3105 201.881 46.4185 201.87C46.6343 201.847 46.9543 201.812 47.3732 201.765C48.2108 201.671 49.4434 201.527 51.0269 201.327C54.1937 200.927 58.7641 200.303 64.3848 199.404C75.6248 197.608 91.0707 194.715 107.893 190.33C141.481 181.573 180.767 166.814 202.886 142.784L201.559 141.563C179.822 165.179 140.996 179.837 107.438 188.585C90.6861 192.952 75.2994 195.834 64.1002 197.624C58.5013 198.519 53.9505 199.141 50.8009 199.539C49.2262 199.738 48.0019 199.881 47.1721 199.974C46.7572 200.021 46.441 200.055 46.2289 200.077C46.1229 200.088 46.0429 200.097 45.9896 200.102C45.963 200.105 45.943 200.107 45.9298 200.108C45.9233 200.109 45.9184 200.109 45.9152 200.11C45.9136 200.11 45.9125 200.11 45.9117 200.11C45.911 200.11 45.9107 200.11 46 201.007ZM202.886 142.784C219.208 125.051 230.088 98.0295 237.244 72.5149C244.408 46.9737 247.874 22.8173 249.302 10.7139L247.512 10.5027C246.09 22.5574 242.637 46.612 235.508 72.0281C228.372 97.4708 217.585 124.153 201.559 141.563L202.886 142.784Z" fill="#27AE60"/>
<defs>
<linearGradient id="paint0_linear_3_1179" x1="80.0732" y1="9.36523" x2="80.0732" y2="320.999" gradientUnits="userSpaceOnUse">
<stop stop-color="#1E2029"/>
<stop offset="1" stop-color="white"/>
</linearGradient>
<linearGradient id="paint1_linear_3_1179" x1="147.22" y1="9.36523" x2="147.22" y2="320.999" gradientUnits="userSpaceOnUse">
<stop stop-color="#1E2029"/>
<stop offset="1" stop-color="white"/>
</linearGradient>
<linearGradient id="paint2_linear_3_1179" x1="214.368" y1="9.36523" x2="214.368" y2="320.999" gradientUnits="userSpaceOnUse">
<stop stop-color="#1E2029"/>
<stop offset="1" stop-color="white"/>
</linearGradient>
<linearGradient id="paint3_linear_3_1179" x1="281.516" y1="9.36523" x2="281.516" y2="320.999" gradientUnits="userSpaceOnUse">
<stop stop-color="#1E2029"/>
<stop offset="1" stop-color="white"/>
</linearGradient>
<linearGradient id="paint4_linear_3_1179" x1="113.647" y1="9.36523" x2="113.647" y2="320.999" gradientUnits="userSpaceOnUse">
<stop stop-color="#1E2029"/>
<stop offset="1" stop-color="white"/>
</linearGradient>
<linearGradient id="paint5_linear_3_1179" x1="180.794" y1="9.36523" x2="180.794" y2="320.999" gradientUnits="userSpaceOnUse">
<stop stop-color="#1E2029"/>
<stop offset="1" stop-color="white"/>
</linearGradient>
<linearGradient id="paint6_linear_3_1179" x1="247.942" y1="9.36523" x2="247.942" y2="320.999" gradientUnits="userSpaceOnUse">
<stop stop-color="#1E2029"/>
<stop offset="1" stop-color="white"/>
</linearGradient>
<linearGradient id="paint7_linear_3_1179" x1="315.089" y1="9.36523" x2="315.089" y2="320.999" gradientUnits="userSpaceOnUse">
<stop stop-color="#1E2029"/>
<stop offset="1" stop-color="white"/>
</linearGradient>
<linearGradient id="paint8_linear_3_1179" x1="359.703" y1="52.7422" x2="47.0469" y2="52.7422" gradientUnits="userSpaceOnUse">
<stop stop-color="#1E2029"/>
<stop offset="1" stop-color="white"/>
</linearGradient>
<linearGradient id="paint9_linear_3_1179" x1="359.703" y1="119.671" x2="47.0469" y2="119.671" gradientUnits="userSpaceOnUse">
<stop stop-color="#1E2029"/>
<stop offset="1" stop-color="white"/>
</linearGradient>
<linearGradient id="paint10_linear_3_1179" x1="359.703" y1="186.598" x2="47.0469" y2="186.598" gradientUnits="userSpaceOnUse">
<stop stop-color="#1E2029"/>
<stop offset="1" stop-color="white"/>
</linearGradient>
<linearGradient id="paint11_linear_3_1179" x1="359.703" y1="253.526" x2="47.0469" y2="253.526" gradientUnits="userSpaceOnUse">
<stop stop-color="#1E2029"/>
<stop offset="1" stop-color="white"/>
</linearGradient>
<linearGradient id="paint12_linear_3_1179" x1="359.703" y1="86.2059" x2="47.0469" y2="86.2059" gradientUnits="userSpaceOnUse">
<stop stop-color="#1E2029"/>
<stop offset="1" stop-color="white"/>
</linearGradient>
<linearGradient id="paint13_linear_3_1179" x1="359.703" y1="153.134" x2="47.0469" y2="153.134" gradientUnits="userSpaceOnUse">
<stop stop-color="#1E2029"/>
<stop offset="1" stop-color="white"/>
</linearGradient>
<linearGradient id="paint14_linear_3_1179" x1="359.703" y1="220.062" x2="47.0469" y2="220.062" gradientUnits="userSpaceOnUse">
<stop stop-color="#1E2029"/>
<stop offset="1" stop-color="white"/>
</linearGradient>
<linearGradient id="paint15_linear_3_1179" x1="359.703" y1="286.99" x2="47.0469" y2="286.99" gradientUnits="userSpaceOnUse">
<stop stop-color="#1E2029"/>
<stop offset="1" stop-color="white"/>
</linearGradient>
</defs>
</svg>
