<svg width="1440" height="796" viewBox="0 0 1440 796" fill="none" xmlns="http://www.w3.org/2000/svg">
<g clip-path="url(#clip0_3_1010)">
<rect width="1440" height="800" transform="translate(0 -4)" fill="#12141D"/>
<g opacity="0.1">
<path opacity="0.25" d="M281.331 358.541C305.523 355.866 330.822 358.829 356.752 367.393C385.206 376.795 413.445 392.853 438.427 413.834C442.288 417.077 446.115 420.474 449.793 423.928C489.439 461.177 519.058 507.677 547.7 552.643C554.315 563.02 561.15 573.759 567.996 584.196C585.459 610.809 609.27 645.12 638.633 674.466C660.514 696.378 682.863 712.989 706.959 725.236C776.259 760.439 865.286 758.429 945.113 719.864C998.682 693.987 1047.48 649.993 1094.29 585.366C1111.98 560.939 1128.49 535.167 1142.36 513.162L1145.79 507.735C1165.21 476.831 1185.27 444.881 1210.21 418.126C1222.13 405.213 1235.35 393.565 1249.67 383.369C1279.11 362.568 1314.42 348.293 1354.62 340.948C1394.82 333.604 1437.77 333.809 1478.91 341.474C1513 347.827 1546.44 359.011 1578.79 369.821C1594.68 375.133 1611.1 380.652 1627.41 385.479C1635.71 387.944 1644.18 390.302 1652.59 392.49C1706.32 406.391 1754.62 412.366 1800.24 410.731C1854.19 408.827 1902.49 396.306 1943.83 373.532L1944.74 375.16C1903.13 398.096 1854.54 410.689 1800.3 412.603C1754.49 414.212 1706.03 408.233 1652.11 394.282C1643.69 392.103 1635.2 389.746 1626.88 387.279C1610.55 382.424 1594.1 376.92 1578.19 371.604C1545.88 360.819 1512.53 349.654 1478.57 343.326C1437.64 335.701 1394.9 335.519 1354.95 342.801C1315.01 350.083 1279.93 364.263 1250.72 384.906C1236.51 395.03 1223.38 406.591 1211.54 419.408C1186.75 446.032 1166.73 477.907 1147.36 508.737L1143.93 514.164C1130.07 536.191 1113.49 562.004 1095.79 586.468C1048.8 651.35 999.758 695.539 945.94 721.553C865.582 760.372 775.926 762.377 706.076 726.889C681.803 714.553 659.297 697.826 637.274 675.775C607.794 646.308 583.914 611.896 566.397 585.203C559.543 574.755 552.703 564.016 546.086 553.628C517.501 508.76 487.952 462.367 448.473 425.278C444.827 421.849 441.025 418.473 437.189 415.25C384.064 370.635 319.965 351.099 265.707 362.983C219.814 373.031 182.942 403.065 152.932 431.125C95.9565 484.384 51.2925 547.431 1.76699 625.702C-2.49454 632.442 -6.82009 639.385 -11.0095 646.099C-37.972 689.362 -65.8554 734.091 -103.505 768.769C-125.425 788.961 -151.141 804.592 -179.158 814.754C-208.304 825.249 -238.067 829.128 -267.675 826.272L-267.496 824.403C-209.383 829.977 -150.077 809.193 -104.777 767.371C-67.3158 732.87 -39.5012 688.246 -12.602 645.089C-8.41254 638.374 -4.08206 631.425 0.176949 624.662C49.781 546.267 94.5254 483.113 151.647 429.711C181.845 401.481 218.961 371.258 265.298 361.109C270.594 359.972 275.945 359.115 281.331 358.541Z" fill="#00FF62"/>
<path opacity="0.38" d="M285.231 384.113C334.382 378.677 388.876 396.486 436.547 433.937C440.232 436.831 443.892 439.86 447.432 442.955C485.701 476.398 515.3 518.291 543.905 558.813C550.3 567.866 556.89 577.232 563.503 586.341C580.875 610.307 604.385 641.166 632.26 667.318C653.147 686.966 674.272 701.943 696.841 713.097C762.009 745.26 845.035 744.271 918.949 710.428C972.693 685.827 1021.61 640.828 1068.49 572.865C1084.15 550.16 1099.1 526.168 1113.56 502.963L1116.13 498.829C1134.59 469.212 1157.57 432.343 1186.43 403.441C1199 390.789 1212.88 379.512 1227.83 369.801C1258.12 350.226 1294.43 336.905 1335.76 330.208C1376.66 323.599 1420.35 323.971 1462.11 331.278C1501.16 338.12 1539.47 350.684 1576.52 362.835C1588.55 366.782 1600.99 370.857 1613.26 374.68C1621.61 377.288 1630.17 379.845 1638.66 382.277C1697.67 399.212 1743.4 407.268 1786.97 408.384C1842.68 409.816 1891.92 399.209 1933.29 376.864L1934.49 379.089C1892.7 401.646 1843.05 412.346 1786.88 410.912C1743.1 409.785 1697.13 401.709 1637.94 384.707C1629.44 382.265 1620.87 379.681 1612.48 377.094C1600.19 373.267 1587.75 369.187 1575.71 365.241C1538.75 353.138 1500.53 340.57 1461.66 333.794C1420.17 326.531 1376.78 326.162 1336.15 332.723C1295.16 339.365 1259.18 352.558 1229.19 371.943C1214.38 381.553 1200.64 392.717 1188.21 405.245C1161.65 431.833 1141.65 462.652 1118.26 500.19L1115.69 504.317C1101.21 527.548 1086.24 551.564 1070.55 574.313C1023.41 642.67 974.16 687.947 919.988 712.744C845.404 746.88 761.564 747.861 695.72 715.359C672.925 704.092 651.601 688.981 630.533 669.157C602.499 642.872 578.894 611.881 561.46 587.823C554.856 578.695 548.237 569.327 541.842 560.268C513.325 519.869 483.832 478.097 445.77 444.856C442.261 441.786 438.634 438.788 434.987 435.925C384.236 396.054 325.728 378.677 274.488 388.256C231.434 396.302 196.083 421.651 167.186 445.388C106.972 494.851 59.5725 559.156 17.7589 615.884C12.1904 623.414 6.53457 631.247 1.06154 638.807C-30.3767 682.236 -62.8839 727.148 -104.991 760.642C-153.812 799.592 -219.169 818.643 -284.294 812.911L-284.072 810.391C-219.587 816.068 -154.888 797.216 -106.569 758.668C-64.7322 725.388 -32.3301 680.619 -0.986124 637.328C4.48627 629.763 10.1497 621.946 15.7151 614.387C57.6242 557.534 105.114 493.103 165.576 443.439C194.719 419.474 230.393 393.922 274.024 385.778C277.727 385.081 281.462 384.525 285.231 384.113Z" fill="#00FF62"/>
<path opacity="0.5" d="M288.559 409.62C335.479 404.431 388.361 420.437 434.633 454.033C438.14 456.572 441.639 459.238 445.034 461.957C482.031 491.612 511.646 528.916 540.286 565.055C546.386 572.747 552.699 580.703 558.972 588.456C577.338 611.096 599.645 637.328 625.85 660.15C645.744 677.54 665.652 690.895 686.706 700.949C748.026 730.212 825.052 730.244 892.759 701.028C946.756 677.725 995.784 631.729 1042.63 560.409C1054.35 542.577 1065.77 523.856 1076.82 505.798C1081.16 498.696 1085.51 491.61 1089.86 484.542C1110.32 451.419 1132.79 416.743 1162.67 388.778C1175.88 376.382 1190.42 365.477 1206.02 356.259C1237.09 337.912 1274.39 325.547 1316.91 319.508C1359.54 313.545 1402.83 314.092 1445.3 321.13C1491.73 328.751 1537.23 343.661 1581.22 358.086C1587.2 360.033 1593.16 361.98 1599.1 363.927C1607.52 366.66 1616.15 369.423 1624.76 372.129C1671.55 386.867 1721.59 401.631 1773.75 406.078C1830.2 410.897 1881.75 401.965 1922.8 380.243L1924.26 383.048C1882.67 405.06 1830.52 414.118 1773.45 409.245C1721 404.768 1670.78 389.948 1623.8 375.162C1615.19 372.45 1606.55 369.683 1598.12 366.951C1592.14 365.016 1586.18 363.065 1580.23 361.1C1536.36 346.719 1490.98 331.831 1444.8 324.263C1402.65 317.274 1359.68 316.73 1317.36 322.649C1275.27 328.63 1238.35 340.854 1207.64 358.983C1192.24 368.082 1177.89 378.847 1164.85 391.084C1135.24 418.794 1112.92 453.269 1092.57 486.206C1088.21 493.264 1083.87 500.348 1079.55 507.456C1068.49 525.555 1057.04 544.273 1045.3 562.154C998.098 634.003 948.618 680.383 894.023 703.914C860.939 718.186 824.796 725.899 789.482 726.204C752.234 726.532 717.198 718.987 685.342 703.784C664.05 693.596 643.883 680.097 623.772 662.518C597.38 639.509 574.964 613.179 556.519 590.444C550.227 582.682 543.913 574.72 537.796 567.025C509.262 531.058 479.796 493.858 443.06 464.434C439.704 461.746 436.249 459.109 432.779 456.6C385.244 422.101 330.742 406.401 283.217 413.518C242.584 419.602 207.438 441.379 181.355 459.671C124.361 499.64 78.2532 553.748 33.6833 606.079C25.3961 615.805 17.0076 625.969 8.89241 635.792C-25.7913 677.799 -61.654 721.233 -106.535 752.516C-158.412 788.791 -227.471 805.468 -300.947 799.513L-300.686 796.344C-227.943 802.242 -159.641 785.752 -108.356 749.911C-63.827 718.88 -28.1016 675.611 6.44479 633.769C14.5758 623.934 22.9636 613.764 31.2659 604.019C75.9751 551.54 122.204 497.274 179.535 457.072C205.903 438.599 241.458 416.558 282.749 410.378C284.676 410.088 286.612 409.836 288.559 409.62Z" fill="#00FF62"/>
<path opacity="0.63" d="M1303.39 308.166C1345.04 303.61 1387.11 304.548 1428.51 310.956C1481.97 319.166 1533.03 335.604 1584.98 353.159C1593.63 356.082 1602.26 359.016 1610.88 361.962L1619.41 364.873C1667.29 381.328 1712.52 396.856 1760.57 403.762C1818.38 412.073 1870.85 405.1 1912.3 383.593L1914.06 386.988C1871.89 408.862 1818.63 415.98 1760.02 407.544C1711.62 400.591 1664.11 384.279 1618.17 368.496L1609.64 365.568C1601.03 362.629 1592.4 359.7 1583.75 356.78C1531.97 339.282 1481.09 322.899 1427.96 314.734C1385.14 308.105 1341.61 307.378 1298.59 312.574C1255.31 317.885 1217.45 329.147 1186.1 346.046C1170.11 354.636 1155.15 365.006 1141.5 376.957C1110.66 403.991 1087.43 438.723 1066.91 472.209C1060.08 483.336 1053.28 494.827 1046.68 505.928C1038.05 520.469 1029.12 535.526 1020.07 549.958C972.207 626.42 923.909 672.549 868.074 695.122C804.986 720.629 734.618 719.584 675.001 692.275C655.442 683.289 635.953 671.069 617.071 655.953C592.199 636.112 570.036 613.056 551.64 593.115C545.793 586.767 539.901 580.274 534.205 573.99C505.547 542.382 475.912 509.695 440.411 484.034C437.193 481.711 433.905 479.442 430.631 477.286C385.734 447.681 336.475 434.017 291.934 438.782C253.688 442.902 220.305 459.736 195.481 473.982C141.242 505.102 95.5229 549.597 49.5986 596.299C37.1695 608.949 24.7066 622.387 12.6618 635.386C-23.9913 674.955 -61.8948 715.878 -108.085 744.385C-162.993 778.367 -233.474 792.402 -317.566 786.105L-317.284 782.294C-234.012 788.526 -164.288 774.679 -110.099 741.133C-64.3458 712.888 -26.6221 672.164 9.86337 632.798C21.9233 619.779 34.3952 606.318 46.8774 593.627C92.9991 546.73 138.927 502.039 193.582 470.672C218.591 456.325 252.222 439.336 290.876 435.056L291.537 434.983C336.955 430.127 387.107 444.003 432.744 474.102C436.057 476.283 439.394 478.587 442.656 480.94C478.483 506.835 508.255 539.668 537.043 571.423C542.734 577.708 548.619 584.19 554.459 590.528C572.785 610.355 594.793 633.313 619.466 652.969C638.102 667.893 657.326 679.947 676.604 688.802C735.265 715.692 804.536 716.714 866.647 691.598C921.699 669.342 969.423 623.697 1016.84 547.953C1025.87 533.535 1034.78 518.52 1043.4 503.998C1050 492.897 1056.81 481.403 1063.66 470.235C1084.33 436.472 1107.76 401.454 1138.99 374.089C1152.85 361.951 1168.03 351.423 1184.26 342.705C1216.05 325.575 1254.36 314.171 1298.1 308.797C1299.86 308.567 1301.64 308.359 1303.39 308.166Z" fill="#00FF62"/>
<path opacity="0.75" d="M1276.12 298.397L1279.3 298.045C1323.38 293.531 1367.85 294.445 1411.71 300.766C1459.13 307.558 1508.2 320.397 1570.86 342.374C1579.63 345.437 1588.43 348.623 1597.01 351.794C1606.71 355.383 1616.51 359.104 1625.98 362.706C1665.27 377.662 1705.9 393.105 1747.43 401.453C1788.58 409.727 1848.78 413.925 1901.81 386.943L1903.84 390.936C1849.67 418.499 1788.4 414.253 1746.54 405.838C1704.69 397.422 1663.85 381.905 1624.39 366.915C1614.93 363.318 1605.15 359.6 1595.46 356.021C1586.91 352.859 1578.13 349.699 1569.38 346.628C1507 324.717 1458.18 311.979 1411.08 305.227C1367.58 298.955 1323.48 298.046 1279.76 302.522C1235.26 307.139 1196.46 317.451 1164.48 333.133C1147.92 341.199 1132.36 351.167 1118.11 362.835C1084.74 390.27 1060.52 426.459 1041.22 458.243C1032.54 472.541 1024.03 487.368 1015.8 501.709C1008.98 513.607 1001.91 525.911 994.821 537.793C964.713 588.248 916.12 658.539 842.069 686.348C785.848 707.465 721.183 705.421 664.644 680.739C646.536 672.826 628.281 662.29 610.375 649.382C587.159 632.74 566.108 613.802 546.777 595.825C541.575 590.981 536.394 586.113 531.236 581.221C502.245 553.89 472.269 525.62 437.772 503.668C434.708 501.703 431.584 499.813 428.503 498.004C387.104 473.774 341.677 461.726 300.581 464.041C272.666 465.607 243.72 473.326 209.49 488.33C153.194 512.993 105.086 551.824 65.4433 586.555C47.6359 602.151 30.1749 619.264 13.2701 635.78C-24.3176 672.577 -63.1847 710.622 -109.69 736.283C-166.702 767.807 -238.065 779.387 -334.223 772.713L-333.915 768.254C-238.652 774.86 -168.093 763.455 -111.852 732.368C-65.8789 706.996 -27.2301 669.166 10.1393 632.583C27.0719 616.006 44.5823 598.87 62.484 583.189C102.379 548.24 150.833 509.146 207.683 484.231C242.424 469.004 271.859 461.174 300.324 459.581C342.288 457.245 388.607 469.494 430.754 494.131C433.88 495.986 437.032 497.914 440.133 499.904C474.99 522.086 505.121 550.507 534.266 577.982C539.415 582.859 544.588 587.721 549.787 592.565C568.992 610.446 589.932 629.264 612.948 645.767C630.602 658.473 648.581 668.866 666.394 676.657C721.872 700.874 785.318 702.886 840.433 682.184C913.222 654.844 961.226 585.372 990.972 535.499C998.045 523.649 1005.09 511.363 1011.91 499.483C1020.15 485.118 1028.67 470.267 1037.38 455.925C1056.88 423.808 1081.37 387.243 1115.26 359.383C1129.78 347.489 1145.64 337.326 1162.51 329.099C1194.19 313.559 1232.4 303.231 1276.12 298.397Z" fill="#00FF62"/>
<path opacity="0.88" d="M1247.12 288.646C1251.51 288.16 1255.98 287.722 1260.51 287.332C1305.29 283.54 1350.36 284.636 1394.9 290.601C1446.95 297.52 1499.91 310.966 1556.74 331.622C1565.58 334.833 1574.47 338.206 1583.16 341.653C1597.63 347.392 1612.17 353.574 1626.22 359.51C1661.12 374.308 1697.2 389.613 1734.32 399.152C1776.25 409.927 1837.52 417.123 1891.33 390.286L1893.61 394.873C1838.4 422.436 1775.82 415.109 1733.04 404.11C1695.56 394.479 1659.29 379.107 1624.22 364.231C1610.19 358.293 1595.69 352.13 1581.27 346.419C1572.63 342.99 1563.81 339.627 1554.99 336.436C1498.51 315.909 1445.92 302.578 1394.23 295.682C1350.05 289.765 1305.36 288.675 1260.95 292.434C1214.47 296.422 1175.85 305.499 1142.87 320.191C1125.73 327.749 1109.56 337.327 1094.69 348.722C1058.83 376.426 1033.55 414.334 1015.53 444.26C1005.38 461.1 995.657 478.723 986.25 495.724C980.808 505.544 975.211 515.734 969.578 525.593C947.735 563.985 927.371 592.833 905.494 616.38C877.582 646.426 848.32 666.441 816.038 677.553C766.442 694.648 709.005 691.695 654.294 669.208C636.717 661.876 619.8 653.053 603.728 642.834C583.395 630.074 564.342 615.91 541.982 598.574C537.822 595.346 533.671 592.11 529.529 588.866C499.806 565.649 469.075 541.65 435.185 523.314C432.256 521.731 429.297 520.191 426.399 518.737C388.31 499.632 347.763 489.452 309.141 489.293C282.452 489.179 254.388 493.562 223.344 502.682C175.972 516.604 129.478 540.858 81.2029 576.826C57.122 594.775 34.1678 615.515 11.9742 635.578C-25.8715 669.782 -65.0269 705.168 -111.316 728.148C-184.175 764.387 -269.519 764.537 -350.884 759.293L-350.556 754.181C-269.894 759.376 -185.37 759.264 -113.598 723.561C-67.9231 700.861 -29.0505 665.731 8.53832 631.757C30.8218 611.622 53.8639 590.791 78.1422 572.699C126.906 536.36 173.93 511.846 221.893 497.749C253.424 488.501 281.97 484.041 309.161 484.151C348.565 484.311 389.9 494.679 428.692 514.145C431.637 515.617 434.646 517.185 437.624 518.798C471.888 537.335 502.796 561.475 532.682 584.818C536.828 588.055 540.975 591.287 545.123 594.516C567.357 611.756 586.297 625.835 606.451 638.488C622.276 648.548 638.933 657.235 656.24 664.453C709.797 686.457 765.952 689.384 814.367 672.702C886.683 647.805 932.937 579.651 965.129 523.083C970.724 513.245 976.337 503.095 981.767 493.269C991.196 476.209 1000.98 458.563 1011.14 441.623C1029.39 411.314 1055.02 372.9 1091.56 344.672C1106.75 333.032 1123.26 323.245 1140.77 315.52C1171.06 302.024 1205.97 293.197 1247.12 288.646Z" fill="#00FF62"/>
<path d="M1217.7 278.739C1225.5 277.876 1233.51 277.165 1241.74 276.605C1353.72 269.108 1465.9 287.909 1569.31 331.505C1587.3 339.109 1605.25 347.581 1622.61 355.773C1654.39 370.765 1687.25 386.272 1721.23 396.872C1763.87 410.178 1826.17 420.412 1880.83 393.624L1883.37 398.812C1827.01 426.421 1763.12 415.988 1719.5 402.369C1685.14 391.65 1652.1 376.054 1620.15 360.977C1602.84 352.808 1584.94 344.365 1567.07 336.806C1464.48 293.564 1353.2 274.921 1242.12 282.366C1168.65 287.373 1112.77 304.461 1071.28 334.614C1019.35 372.364 987.968 431.44 957.619 488.577C953.285 496.742 948.803 505.183 944.351 513.385C911.689 573.566 864.627 645.612 790 668.788C735.015 685.869 670.135 674.952 597.174 636.345C574.414 624.297 552.12 610.532 530.563 597.221C496.717 576.316 461.716 554.708 424.41 539.509C319.071 496.607 193.594 507.194 96.9337 567.147C65.9903 586.345 37.5089 610.559 9.96013 633.985C-27.8428 666.128 -66.9305 699.363 -112.929 720.07C-193.521 756.357 -285.959 750.816 -367.516 745.921L-367.168 740.162C-286.278 745.009 -194.6 750.513 -115.303 714.807C-70.0516 694.43 -31.2794 661.466 6.2128 629.589C33.9255 606.029 62.5632 581.665 93.8886 562.275C192.085 501.369 319.571 490.605 426.588 534.192C464.333 549.567 499.545 571.313 533.595 592.34C555.072 605.602 577.279 619.313 599.874 631.27C671.453 669.102 734.82 679.886 788.29 663.273C860.928 640.715 907.133 569.829 939.276 510.633C943.718 502.45 948.196 494.021 952.52 485.868C983.174 428.156 1014.87 368.474 1067.89 329.947C1105.6 302.533 1154.78 285.698 1217.7 278.739Z" fill="#00FF62"/>
</g>
<g opacity="0.35" filter="url(#filter0_f_3_1010)">
<rect x="311.999" y="136" width="250" height="250" rx="125" fill="#00FF62"/>
</g>
</g>
<defs>
<filter id="filter0_f_3_1010" x="-188.001" y="-364" width="1250" height="1250" filterUnits="userSpaceOnUse" color-interpolation-filters="sRGB">
<feFlood flood-opacity="0" result="BackgroundImageFix"/>
<feBlend mode="normal" in="SourceGraphic" in2="BackgroundImageFix" result="shape"/>
<feGaussianBlur stdDeviation="250" result="effect1_foregroundBlur_3_1010"/>
</filter>
<clipPath id="clip0_3_1010">
<rect width="1440" height="800" fill="white" transform="translate(0 -4)"/>
</clipPath>
</defs>
</svg>
