<svg width="32" height="32" viewBox="0 0 32 32" fill="none" xmlns="http://www.w3.org/2000/svg">
<path fill-rule="evenodd" clip-rule="evenodd" d="M16.2197 18.052L13.4778 20.8796C13.476 20.8812 13.4744 20.883 13.4723 20.8843C13.4656 20.8888 13.4575 20.8914 13.4489 20.8914C13.4251 20.8914 13.4058 20.8714 13.4058 20.8468C13.4058 20.8419 13.4065 20.837 13.4081 20.8325C13.4081 20.8324 13.4079 20.8329 13.4079 20.8328L14.4511 16.8199C14.5401 16.5322 14.474 16.2047 14.2526 15.9766L11.5107 13.1489C11.5091 13.147 11.5075 13.1453 11.5061 13.1432C11.5019 13.1364 11.4993 13.1281 11.4993 13.1192C11.4993 13.0946 11.5186 13.0746 11.5425 13.0746C11.5474 13.0746 11.5521 13.0755 11.5564 13.077C11.5565 13.0771 11.5561 13.0767 11.5561 13.0767L15.4475 14.1527C15.7263 14.2444 16.0439 14.1763 16.2651 13.948L19.0072 11.1205C19.0089 11.1188 19.0106 11.117 19.0127 11.1157C19.0194 11.1112 19.0274 11.1086 19.036 11.1086C19.0598 11.1086 19.0792 11.1286 19.0792 11.1532C19.0792 11.1582 19.0783 11.163 19.0769 11.1675L19.0771 11.1672L18.0339 15.1801C17.9449 15.4677 18.011 15.7953 18.2323 16.0234L20.9742 18.8511C20.9758 18.853 20.9775 18.8547 20.9787 18.8567C20.9831 18.8636 20.9857 18.8719 20.9857 18.8808C20.9857 18.9053 20.9662 18.9253 20.9424 18.9253C20.9376 18.9253 20.9329 18.9245 20.9286 18.923C20.9285 18.923 20.9289 18.9231 20.9288 18.9231L17.0375 17.8473C16.7586 17.7556 16.441 17.8238 16.2197 18.052ZM31.6393 15.7053L25.0899 8.95141C24.8687 8.72325 24.5512 8.65499 24.2723 8.74672L19.9655 9.93776C19.965 9.93765 19.9649 9.93701 19.9641 9.93733C19.96 9.93861 19.9557 9.93936 19.9511 9.93936C19.9273 9.93936 19.908 9.91941 19.908 9.89477C19.908 9.87899 19.9158 9.86523 19.9278 9.85733C19.928 9.85723 19.9274 9.85733 19.9274 9.85733C20.3975 9.53488 21.1104 8.95141 22.8145 7.19408C22.9722 7.03141 22.9722 6.76752 22.8145 6.60475L16.5282 0.12208C16.3704 -0.0406933 16.1145 -0.0406933 15.9568 0.12208L9.40745 6.876C9.1862 7.10416 9.12011 7.43173 9.20906 7.71931L10.3639 12.1606C10.3638 12.1611 10.3633 12.1612 10.3635 12.1622C10.3648 12.1663 10.3655 12.1708 10.3655 12.1754C10.3655 12.2001 10.3461 12.22 10.3222 12.22C10.307 12.22 10.2936 12.2118 10.2859 12.1994C10.2858 12.1994 10.2859 12.1998 10.2859 12.1998C9.97323 11.715 9.40745 10.98 7.70347 9.22267C7.54563 9.05989 7.28973 9.05989 7.132 9.22267L0.845675 15.7053C0.687835 15.8681 0.687835 16.132 0.845675 16.2947L7.39493 23.0486C7.61617 23.2767 7.93382 23.345 8.21268 23.2533L12.5195 22.0622C12.52 22.0623 12.52 22.063 12.5209 22.0627C12.525 22.0614 12.5293 22.0606 12.5337 22.0606C12.5576 22.0606 12.577 22.0806 12.577 22.1052C12.577 22.1209 12.5691 22.1348 12.5571 22.1428C12.557 22.1428 12.5575 22.1427 12.5575 22.1428C12.0873 22.4651 11.3746 23.0486 9.67048 24.8059C9.51264 24.9687 9.51264 25.2325 9.67048 25.3953L15.9568 31.8779C16.1145 32.0407 16.3704 32.0407 16.5282 31.8779L23.0774 25.124C23.2987 24.8958 23.3649 24.5683 23.2759 24.2807L22.1211 19.8394C22.1211 19.8388 22.1217 19.8388 22.1214 19.8379C22.1201 19.8337 22.1195 19.8293 22.1195 19.8246C22.1195 19.7999 22.1389 19.78 22.1626 19.78C22.178 19.78 22.1914 19.7882 22.1991 19.8006V19.8002C22.5116 20.285 23.0774 21.0201 24.7815 22.7773C24.9393 22.9401 25.1951 22.9401 25.353 22.7773L31.6393 16.2947C31.797 16.132 31.797 15.8681 31.6393 15.7053Z" fill="#6A6F81"/>
</svg>
