<svg width="24" height="24" viewBox="0 0 24 24" fill="none" xmlns="http://www.w3.org/2000/svg">
<path d="M8.2825 20.7499C15.83 20.7499 19.9587 14.4961 19.9587 9.08239C19.9587 8.90739 19.9588 8.72989 19.9513 8.55489C20.7551 7.973 21.4488 7.25258 22 6.42739C21.2491 6.75845 20.4535 6.97665 19.6388 7.07489C20.4969 6.56194 21.1397 5.75485 21.4475 4.80364C20.6412 5.28129 19.7588 5.61661 18.8387 5.79489C18.2202 5.13617 17.4018 4.69979 16.5101 4.55334C15.6185 4.40689 14.7034 4.55854 13.9067 4.98481C13.1099 5.41108 12.476 6.08818 12.1031 6.91122C11.7301 7.73425 11.639 8.65731 11.8438 9.53739C10.2122 9.45558 8.61602 9.03172 7.1588 8.29332C5.70159 7.55491 4.41586 6.51844 3.385 5.25114C2.86168 6.15499 2.70197 7.22414 2.93831 8.24147C3.17465 9.2588 3.78932 10.1481 4.6575 10.7286C4.00692 10.7065 3.37065 10.5318 2.8 10.2186V10.2749C2.80112 11.2217 3.12913 12.1392 3.72859 12.8721C4.32805 13.605 5.16218 14.1085 6.09 14.2974C5.73783 14.3944 5.37404 14.4428 5.00875 14.4411C4.75123 14.4419 4.49423 14.4181 4.24125 14.3699C4.50348 15.185 5.01409 15.8976 5.70156 16.408C6.38903 16.9184 7.21892 17.201 8.075 17.2161C6.62069 18.3584 4.82425 18.9779 2.975 18.9749C2.64915 18.9763 2.32353 18.9575 2 18.9186C3.87689 20.1152 6.05662 20.7506 8.2825 20.7499V20.7499Z" fill="#949CB1"/>
</svg>
